# xmcd CD database file
#
# Track frame offsets:
#	150
#	6596
#	21956
#	35673
#	54449
#	74684
#	99951
#	120701
#	135885
#	152423
#	164494
#	192681
#	216912
#	245677
#	274214
#
# Disc length: 3874 seconds
#
# Revision: 0
# Processed by: cddbd v1.5.2PL0 Copyright (c) Steve Scherf et al.
# Submitted via: CDex 1.51
#
DISCID=dd0f200f
DTITLE=Various Artist - Universal Jazz 2000
DYEAR=1900
DGENRE=Jazz
TTITLE0=Jorge Ben - Balanca Pema
TTITLE1=Camaron - Como El Agua
TTITLE2=Jobim-Morelenbaum - Ela E Carioca
TTITLE3=Khaled - C'est La Nuit
TTITLE4=Al Jarreau - God's Gift To The World
TTITLE5=Helen Merrill - Motherless Child
TTITLE6=Teri Thornton - I'll Be Easy To Find
TTITLE7=Mighty Rodgers - Blues Is My Wailin' Wall
TTITLE8=Philippe Saisse - La Vie
TTITLE9=Dee Dee Bridgewater - Get Up I Feel Like Being A Sex Machine
TTITLE10=Nicholas Payton
TTITLE11=Kenny Barron - The Question Is
TTITLE12=Kurt Rosenwinkel - Grant
TTITLE13=Monday Michiru - Play It By Ear
TTITLE14=Peter Thomas Sound Orchestra - Perry Rhodan 2000 - Hymne an die Zukunft
EXTD=
EXTT0=
EXTT1=
EXTT2=
EXTT3=
EXTT4=
EXTT5=
EXTT6=
EXTT7=
EXTT8=
EXTT9=
EXTT10=
EXTT11=
EXTT12=
EXTT13=
EXTT14=
PLAYORDER=
